<svg width="200" height="200" viewBox="0 0 200 200" fill="none" xmlns="http://www.w3.org/2000/svg">
<rect width="200" height="200" fill="white"/>
<circle cx="100" cy="100" r="90" stroke="#00002D" stroke-width="10"/>
<path d="M100 74C125.661 74 148.732 77.3253 165.252 82.5977C173.535 85.2411 179.948 88.3039 184.204 91.5156C188.527 94.7774 190 97.6852 190 100C190 102.315 188.527 105.223 184.204 108.484C179.948 111.696 173.535 114.759 165.252 117.402C148.732 122.675 125.661 126 100 126C74.3387 126 51.268 122.675 34.748 117.402C26.4652 114.759 20.0523 111.696 15.7959 108.484C11.4731 105.223 10 102.315 10 100C10 97.6852 11.4731 94.7774 15.7959 91.5156C20.0523 88.3039 26.4652 85.2411 34.748 82.5977C51.268 77.3253 74.3387 74 100 74Z" stroke="#00002D" stroke-width="8"/>
<path d="M81.6152 81.6152C99.7605 63.47 118.425 49.5079 133.835 41.5546C141.561 37.567 148.261 35.1981 153.542 34.4594C158.905 33.7092 162.003 34.7236 163.64 36.3604C165.276 37.9972 166.291 41.095 165.541 46.4581C164.802 51.7388 162.433 58.4392 158.445 66.1652C150.492 81.5747 136.53 100.24 118.385 118.385C100.24 136.53 81.5747 150.492 66.1652 158.445C58.4392 162.433 51.7388 164.802 46.4581 165.541C41.095 166.291 37.9972 165.276 36.3604 163.64C34.7236 162.003 33.7091 158.905 34.4593 153.542C35.1981 148.261 37.567 141.561 41.5546 133.835C49.5079 118.425 63.47 99.7605 81.6152 81.6152Z" stroke="#00002D" stroke-width="8"/>
<path d="M118.385 81.6152C136.53 99.7605 150.492 118.425 158.445 133.835C162.433 141.561 164.802 148.261 165.541 153.542C166.291 158.905 165.276 162.003 163.64 163.64C162.003 165.276 158.905 166.291 153.542 165.541C148.261 164.802 141.561 162.433 133.835 158.445C118.425 150.492 99.7605 136.53 81.6152 118.385C63.47 100.24 49.5079 81.5747 41.5546 66.1652C37.567 58.4392 35.1981 51.7388 34.4593 46.4581C33.7091 41.095 34.7236 37.9972 36.3604 36.3604C37.9972 34.7236 41.095 33.7092 46.4581 34.4594C51.7388 35.1981 58.4392 37.567 66.1652 41.5546C81.5747 49.5079 100.239 63.47 118.385 81.6152Z" stroke="#00002D" stroke-width="8"/>
<mask id="mask0_1_1018" style="mask-type:alpha" maskUnits="userSpaceOnUse" x="30" y="30" width="140" height="140">
<path d="M80.9081 80.9081C99.1056 62.7106 117.852 48.6782 133.376 40.6659C141.154 36.6515 147.967 34.2303 153.403 33.4698C158.901 32.7007 162.387 33.6934 164.347 35.6533C166.307 37.6132 167.299 41.0991 166.53 46.5969C165.77 52.0328 163.349 58.8465 159.334 66.6244C151.322 82.1483 137.289 100.894 119.092 119.092C100.894 137.289 82.1483 151.322 66.6244 159.334C58.8465 163.349 52.0328 165.77 46.5969 166.53C41.0991 167.299 37.6131 166.307 35.6533 164.347C33.6934 162.387 32.7007 158.901 33.4698 153.403C34.2303 147.967 36.6514 141.154 40.6659 133.376C48.6782 117.852 62.7106 99.1056 80.9081 80.9081Z" stroke="#FA8BB2" stroke-width="6"/>
</mask>
<g mask="url(#mask0_1_1018)">
<rect x="120.431" y="79.5692" width="65.8449" height="28.3833" transform="rotate(-45 120.431 79.5692)" fill="#FA8BB2"/>
</g>
</svg>
